<svg version="1.1" viewBox="0.0 0.0 1000.0 1000.0" fill="none" stroke="none" stroke-linecap="square" stroke-miterlimit="10" xmlns:xlink="http://www.w3.org/1999/xlink" xmlns="http://www.w3.org/2000/svg"><clipPath id="p.0"><path d="m0 0l1000.0 0l0 1000.0l-1000.0 0l0 -1000.0z" clip-rule="nonzero"/></clipPath><g clip-path="url(#p.0)"><path fill="#000000" fill-opacity="0.0" d="m0 0l1000.0 0l0 1000.0l-1000.0 0z" fill-rule="evenodd"/><path fill="#000000" fill-opacity="0.0" d="m796.70557 877.07056c-15.447388 120.50934 -322.5077 41.54773 -368.47238 -94.75391c-45.96469 -136.3017 31.272125 -738.8485 92.68417 -723.0562c61.41205 15.792324 291.2356 697.3008 275.7882 817.8101z" fill-rule="evenodd"/><path stroke="#ffffff" stroke-width="24.0" stroke-linejoin="round" stroke-linecap="butt" d="m796.70557 877.07056c-15.447388 120.50934 -322.5077 41.54773 -368.47238 -94.75391c-45.96469 -136.3017 31.272125 -738.8485 92.68417 -723.0562c61.41205 15.792324 291.2356 697.3008 275.7882 817.8101z" fill-rule="evenodd"/><path fill="#000000" fill-opacity="0.0" d="m575.6004 411.74997c61.386414 -91.449066 2.5497437 -389.04343 -70.604034 -357.11322c-73.15378 31.930199 -380.086 489.17557 -368.31863 548.69446c11.767334 59.51886 377.53625 -100.13214 438.92267 -191.5812z" fill-rule="evenodd"/><path stroke="#ffffff" stroke-width="24.0" stroke-linejoin="round" stroke-linecap="butt" d="m575.6004 411.74997c61.386414 -91.449066 2.5497437 -389.04343 -70.604034 -357.11322c-73.15378 31.930199 -380.086 489.17557 -368.31863 548.69446c11.767334 59.51886 377.53625 -100.13214 438.92267 -191.5812z" fill-rule="evenodd"/><path fill="#000000" fill-opacity="0.0" d="m865.6261 553.8178c51.208984 97.64697 -39.20288 386.95245 -108.49426 347.16656c-69.29132 -39.78589 -325.33618 -528.0208 -307.25378 -585.8819c18.082367 -57.861084 364.53906 141.06836 415.74805 238.71533z" fill-rule="evenodd"/><path stroke="#ffffff" stroke-width="24.0" stroke-linejoin="round" stroke-linecap="butt" d="m865.6261 553.8178c51.208984 97.64697 -39.20288 386.95245 -108.49426 347.16656c-69.29132 -39.78589 -325.33618 -528.0208 -307.25378 -585.8819c18.082367 -57.861084 364.53906 141.06836 415.74805 238.71533z" fill-rule="evenodd"/></g></svg>